{"asset":{"version":"2.0","generator":"THREE.GLTFExporter"},"scenes":[{"nodes":[0],"name":"AuxScene"}],"scene":0,"nodes":[{"mesh":0}],"bufferViews":[{"buffer":0,"byteOffset":0,"byteLength":900,"target":34962,"byteStride":12},{"buffer":0,"byteOffset":900,"byteLength":900,"target":34962,"byteStride":12}],"buffers":[{"byteLength":1800,"uri":"data:application/octet-stream;base64,"}],"accessors":[{"bufferView":0,"componentType":5126,"count":75,"max":[1.9368900060653687,2.799999952316284,1.7999999523162842],"min":[-1.6630860567092896,0.10000000149011612,-1.7999999523162842],"type":"VEC3"},{"bufferView":1,"componentType":5126,"count":75,"max":[0.14107878506183624,1,0.31336262822151184],"min":[-0.8944700956344604,0.44712772965431213,-0.22926248610019684],"type":"VEC3"}],"materials":[{"pbrMetallicRoughness":{"baseColorFactor":[0.5019607843137255,0.5019607843137255,0.5019607843137255,1],"metallicFactor":0,"roughnessFactor":1}}],"meshes":[{"primitives":[{"mode":4,"attributes":{"POSITION":0,"NORMAL":1},"material":0}]}]}